<svg version="1.1" id="Layer_1" xmlns="http://www.w3.org/2000/svg" xmlns:xlink="http://www.w3.org/1999/xlink" x="0px" y="0px"
	 width="100%" viewBox="0 0 249 202" enable-background="new 0 0 249 202" xml:space="preserve">
<path fill="#FDFEFE" opacity="1.000000" stroke="none" 
	d="
M173.000000,203.000000 
	C115.333336,203.000000 58.166672,203.000000 1.000008,203.000000 
	C1.000005,135.666672 1.000005,68.333351 1.000003,1.000017 
	C83.999992,1.000011 166.999985,1.000011 249.999969,1.000006 
	C249.999985,68.333321 249.999985,135.666641 250.000000,202.999969 
	C224.500000,203.000000 199.000000,203.000000 173.000000,203.000000 
M237.901855,56.685711 
	C237.808167,56.642059 237.714462,56.598408 237.620773,56.554756 
	C237.733200,56.714149 237.845642,56.873547 238.090820,57.319115 
	C238.190689,57.363369 238.290573,57.407619 238.390442,57.451870 
	C238.272247,57.285900 238.154068,57.119926 237.901855,56.685711 
M244.334366,57.990917 
	C243.317200,57.439339 242.300034,56.887760 241.282867,56.336178 
	C240.655502,58.068336 240.028122,59.800495 239.400757,61.532650 
	C239.835968,61.711853 240.271179,61.891052 240.706390,62.070251 
	C241.165588,61.430111 241.624802,60.789970 242.682632,60.048351 
	C243.328918,60.385658 243.975204,60.722965 245.051605,61.284763 
	C244.681198,60.269180 244.403702,59.508385 244.334366,57.990917 
M52.500050,53.740997 
	C42.341366,53.741009 32.182606,53.717327 22.024014,53.747704 
	C11.917696,53.777927 5.919165,59.974686 5.826381,70.409409 
	C5.732381,80.980835 12.009992,87.815689 21.971020,87.858818 
	C33.628361,87.909294 45.286800,87.811745 56.942673,87.951920 
	C58.282230,87.968033 59.608425,89.095375 60.940815,89.707504 
	C59.598869,90.472496 58.263702,91.888695 56.913944,91.902748 
	C41.760757,92.060432 26.605328,92.002365 11.450500,92.002312 
	C9.678797,92.002304 7.907094,92.002312 6.196378,92.002312 
	C6.196378,97.344025 6.196378,102.060074 6.196378,107.027016 
	C25.867201,107.027016 45.167156,107.055061 64.466972,107.014671 
	C73.528107,106.995712 80.020187,99.778351 79.995613,89.906738 
	C79.970901,79.978790 73.549751,72.968880 64.356163,72.937202 
	C52.698738,72.897041 41.039795,73.010429 29.385004,72.830719 
	C27.779228,72.805962 26.193541,71.478287 24.598553,70.753815 
	C26.165199,69.961342 27.724037,68.498871 29.299704,68.480507 
	C44.285961,68.305870 59.275070,68.376244 74.263359,68.376183 
	C76.033936,68.376175 77.804512,68.376175 79.697815,68.376175 
	C79.697815,63.222542 79.697815,58.653118 79.697815,53.740871 
	C70.768181,53.740871 62.134117,53.740871 52.500050,53.740997 
M84.202728,68.505676 
	C84.202728,81.264015 84.202728,94.022346 84.202728,106.749878 
	C90.810265,106.749878 96.733849,106.749878 103.177551,106.749878 
	C103.177551,95.803596 103.177551,85.125832 103.177551,73.546265 
	C114.603676,84.214348 125.275780,94.207214 135.996674,104.147453 
	C137.182480,105.246902 138.610641,106.788200 139.988617,106.855766 
	C146.046890,107.152809 152.128021,106.983925 157.979584,106.983925 
	C157.979584,88.819031 157.979584,71.430328 157.979584,54.029667 
	C151.809357,54.029667 146.060379,54.029667 139.697403,54.029667 
	C139.697403,64.936951 139.697403,75.565620 139.697403,87.130943 
	C128.800842,76.944618 118.732094,67.495537 108.608955,58.105076 
	C106.930405,56.548019 105.104164,54.184898 103.191513,54.023155 
	C96.999931,53.499565 90.736320,53.827656 84.202362,53.827656 
	C84.202362,58.889538 84.202362,63.199509 84.202728,68.505676 
M162.944397,103.338013 
	C163.764282,104.567078 164.519653,106.802254 165.414642,106.859634 
	C170.670105,107.196548 175.958160,107.025215 181.774948,107.025215 
	C181.774948,99.139061 181.774948,91.785675 181.774948,83.498024 
	C189.788559,89.659241 197.612961,94.576500 204.065979,100.894463 
	C213.682373,110.309639 224.885437,105.991905 235.743225,106.073616 
	C224.730530,97.586655 213.717850,89.099701 202.306000,80.305130 
	C213.733459,71.497528 224.685440,63.056389 236.781326,53.733608 
	C229.315369,53.733608 223.343063,53.405510 217.432693,53.868473 
	C214.359299,54.109215 210.954178,55.118988 208.463531,56.869381 
	C200.574936,62.413372 193.054642,68.480591 185.368561,74.314674 
	C184.407867,75.043884 183.306946,75.588348 181.466949,76.707443 
	C181.466949,68.535309 181.466949,61.293129 181.466949,54.099201 
	C175.031906,54.099201 169.137619,54.099201 162.943939,54.099201 
	C162.943939,70.432098 162.943939,86.401131 162.944397,103.338013 
M74.655128,147.954910 
	C78.052139,147.954910 81.449150,147.954910 84.770981,147.954910 
	C89.424622,131.174210 89.424622,131.174210 94.274399,131.524429 
	C93.741035,134.299698 92.941368,136.992142 92.783104,139.721802 
	C92.641747,142.159897 92.339165,145.856186 93.671547,146.807892 
	C95.556381,148.154205 98.876709,147.552887 101.588257,147.650192 
	C102.725945,147.691010 104.085899,146.921051 104.984177,147.323868 
	C108.979729,149.115646 112.391792,148.506012 115.463432,145.486618 
	C120.129890,149.452682 122.874062,149.370865 124.829407,146.695770 
	C124.180748,143.360611 123.194275,141.338440 123.552803,139.592453 
	C124.943474,132.820023 126.762024,126.135475 128.414627,119.445160 
	C120.130013,116.923874 120.861740,123.578064 119.335526,127.918396 
	C114.273880,125.874397 109.586754,126.816628 106.784111,130.996033 
	C104.246086,134.780838 103.110558,139.506149 100.842819,145.079559 
	C100.162300,143.338318 99.093559,141.942749 99.232742,140.680389 
	C99.520096,138.074173 100.644089,135.570694 101.073067,132.967148 
	C101.732117,128.967209 99.689026,127.025421 95.764847,126.981667 
	C91.539650,126.934540 87.313530,126.971008 83.056206,126.971008 
	C82.000542,130.867889 80.985931,134.373932 80.109833,137.914246 
	C79.224182,141.493210 78.573044,145.222672 72.922752,143.789093 
	C74.301247,138.089493 75.600510,132.717422 76.943924,127.162849 
	C74.474915,127.162849 72.337067,127.162849 70.513802,127.162849 
	C66.464272,132.387665 69.653572,141.188522 62.370129,144.439285 
	C61.773670,144.212906 61.177212,143.986542 60.580753,143.760162 
	C61.807041,138.281342 63.033325,132.802505 64.272682,127.265289 
	C61.605156,127.265289 59.487976,127.265289 58.225327,127.265289 
	C56.461597,129.978210 55.054367,132.142776 53.647137,134.307343 
	C51.414658,129.599686 49.881516,126.468430 44.793316,126.811539 
	C37.422852,127.308540 30.398155,135.994110 32.511261,143.103821 
	C33.108627,145.113708 35.736610,147.430740 37.826069,147.916153 
	C44.158970,149.387405 48.946442,145.695572 51.133984,138.879211 
	C51.616825,137.374680 52.969700,136.149368 53.627438,135.214218 
	C54.392086,139.783661 54.018040,144.503204 56.143673,147.368103 
	C57.235115,148.839111 62.788189,146.999771 66.278328,146.660934 
	C68.645042,147.101120 71.255508,147.586639 74.655128,147.954910 
M180.017319,147.719604 
	C184.044327,149.322815 187.499069,148.430420 189.229401,146.581390 
	C193.042099,147.192993 195.808884,147.850861 198.606125,148.028412 
	C201.727661,148.226547 204.885742,148.091599 208.004013,147.823441 
	C208.446274,147.785416 208.858871,146.204285 209.104233,145.288849 
	C210.005783,141.925110 210.535172,138.424484 211.800293,135.209808 
	C212.515594,133.392242 214.392899,132.031982 215.746811,130.465744 
	C216.298828,130.841232 216.850861,131.216705 217.402878,131.592178 
	C216.231079,136.981888 215.059265,142.371597 213.846313,147.950577 
	C216.345779,147.950577 218.435303,147.950577 220.512833,147.950577 
	C221.797501,143.075760 222.828964,138.380096 224.364731,133.855606 
	C224.774887,132.647232 226.727188,131.962326 227.971497,131.037094 
	C228.358261,132.420853 229.145172,133.835129 229.042435,135.181534 
	C228.867737,137.470947 227.617050,139.756119 227.782303,141.971176 
	C227.939819,144.082840 228.773041,147.051804 230.302368,147.946747 
	C232.772568,149.392334 235.720901,148.647705 237.191986,145.337967 
	C231.232361,143.103561 235.607376,139.349167 235.533432,136.247162 
	C235.469833,133.578796 235.856827,129.190948 234.630966,128.624908 
	C232.285355,127.541855 228.934921,128.632507 226.001785,128.825821 
	C225.126083,128.883545 223.933731,129.360718 223.425522,128.960739 
	C218.442886,125.039467 212.689407,129.156647 207.501556,127.425766 
	C207.301453,127.359009 206.258514,129.129303 205.967987,130.146332 
	C204.921936,133.808090 204.303421,137.618484 202.950699,141.153595 
	C202.379868,142.645401 200.384735,143.592224 199.037033,144.786774 
	C198.712601,143.214767 197.897430,141.556061 198.156952,140.087219 
	C198.897827,135.893845 200.075699,131.777649 201.185684,127.202370 
	C193.087997,128.237671 184.279129,124.059509 178.794327,134.426819 
	C177.602997,127.119659 175.957260,125.932091 170.500977,127.019630 
	C164.223511,128.270844 158.130402,137.809799 160.383041,143.673080 
	C161.110489,145.566528 163.786407,147.878555 165.632980,147.933975 
	C169.580841,148.052429 173.569168,146.822556 178.318512,146.012329 
	C178.113663,145.802231 178.800430,146.506607 180.017319,147.719604 
M25.836523,129.680740 
	C24.124241,128.127762 21.919580,126.845146 20.867687,124.929535 
	C20.130219,123.586517 20.296791,120.659828 21.276093,119.750595 
	C22.374161,118.731110 25.944643,118.404984 26.484724,119.165413 
	C27.598284,120.733299 27.412769,123.223839 27.936331,126.390991 
	C29.315954,125.228355 31.382925,124.284325 31.914890,122.792816 
	C32.363049,121.536285 31.501186,119.098862 30.392553,118.134521 
	C27.063866,115.239044 17.156685,116.736992 14.220983,120.228195 
	C11.554256,123.399506 12.596475,126.678345 17.732792,131.552826 
	C19.053879,132.806564 20.471760,134.058197 21.418056,135.576950 
	C22.250952,136.913696 22.822887,138.602036 22.917688,140.170898 
	C23.124353,143.591019 20.930140,145.728668 17.843519,145.651077 
	C15.971373,145.604004 13.009264,144.012375 12.531997,142.489395 
	C11.453449,139.047684 14.553255,138.244507 17.271917,137.680832 
	C17.471632,137.639420 17.588255,137.197250 18.660837,135.429581 
	C15.076262,135.668442 12.036339,135.103577 9.927461,136.250565 
	C8.191834,137.194550 6.364800,140.423950 6.739298,142.179489 
	C7.218490,144.425797 9.522993,147.233185 11.660737,147.949814 
	C14.775015,148.993820 18.501625,148.831879 21.858067,148.377747 
	C26.179020,147.793137 29.784451,145.490402 30.878382,140.907990 
	C31.953892,136.402771 30.133749,132.790070 25.836523,129.680740 
M157.520828,125.164314 
	C157.946091,123.816261 158.371338,122.468208 158.778656,121.177040 
	C167.302185,122.604637 171.953629,122.692047 171.585022,117.234268 
	C168.450943,117.234268 165.321243,117.271912 162.192795,117.224991 
	C158.035919,117.162643 153.686600,116.226143 149.778122,117.161629 
	C145.867111,118.097710 141.633453,120.157402 138.928391,123.030579 
	C135.596207,126.569855 137.288010,130.214554 141.684708,131.274658 
	C142.597443,122.061775 144.355515,120.124290 151.682434,120.556374 
	C149.458054,129.645157 147.243515,138.693756 144.992722,147.890488 
	C147.619247,147.890488 149.735825,147.890488 151.892761,147.890488 
	C153.708206,140.450089 155.478607,133.194351 157.520828,125.164314 
z"/>
<path fill="#0296E1" opacity="1.000000" stroke="none" 
	d="
M53.000053,53.740936 
	C62.134117,53.740871 70.768181,53.740871 79.697815,53.740871 
	C79.697815,58.653118 79.697815,63.222542 79.697815,68.376175 
	C77.804512,68.376175 76.033936,68.376175 74.263359,68.376183 
	C59.275070,68.376244 44.285961,68.305870 29.299704,68.480507 
	C27.724037,68.498871 26.165199,69.961342 24.598553,70.753815 
	C26.193541,71.478287 27.779228,72.805962 29.385004,72.830719 
	C41.039795,73.010429 52.698738,72.897041 64.356163,72.937202 
	C73.549751,72.968880 79.970901,79.978790 79.995613,89.906738 
	C80.020187,99.778351 73.528107,106.995712 64.466972,107.014671 
	C45.167156,107.055061 25.867201,107.027016 6.196378,107.027016 
	C6.196378,102.060074 6.196378,97.344025 6.196378,92.002312 
	C7.907094,92.002312 9.678797,92.002304 11.450500,92.002312 
	C26.605328,92.002365 41.760757,92.060432 56.913944,91.902748 
	C58.263702,91.888695 59.598869,90.472496 60.940815,89.707504 
	C59.608425,89.095375 58.282230,87.968033 56.942673,87.951920 
	C45.286800,87.811745 33.628361,87.909294 21.971020,87.858818 
	C12.009992,87.815689 5.732381,80.980835 5.826381,70.409409 
	C5.919165,59.974686 11.917696,53.777927 22.024014,53.747704 
	C32.182606,53.717327 42.341366,53.741009 53.000053,53.740936 
z"/>
<path fill="#0396E1" opacity="1.000000" stroke="none" 
	d="
M84.202545,68.007576 
	C84.202362,63.199509 84.202362,58.889538 84.202362,53.827656 
	C90.736320,53.827656 96.999931,53.499565 103.191513,54.023155 
	C105.104164,54.184898 106.930405,56.548019 108.608955,58.105076 
	C118.732094,67.495537 128.800842,76.944618 139.697403,87.130943 
	C139.697403,75.565620 139.697403,64.936951 139.697403,54.029667 
	C146.060379,54.029667 151.809357,54.029667 157.979584,54.029667 
	C157.979584,71.430328 157.979584,88.819031 157.979584,106.983925 
	C152.128021,106.983925 146.046890,107.152809 139.988617,106.855766 
	C138.610641,106.788200 137.182480,105.246902 135.996674,104.147453 
	C125.275780,94.207214 114.603676,84.214348 103.177551,73.546265 
	C103.177551,85.125832 103.177551,95.803596 103.177551,106.749878 
	C96.733849,106.749878 90.810265,106.749878 84.202728,106.749878 
	C84.202728,94.022346 84.202728,81.264015 84.202545,68.007576 
z"/>
<path fill="#0597E1" opacity="1.000000" stroke="none" 
	d="
M162.944168,102.854088 
	C162.943939,86.401131 162.943939,70.432098 162.943939,54.099201 
	C169.137619,54.099201 175.031906,54.099201 181.466949,54.099201 
	C181.466949,61.293129 181.466949,68.535309 181.466949,76.707443 
	C183.306946,75.588348 184.407867,75.043884 185.368561,74.314674 
	C193.054642,68.480591 200.574936,62.413372 208.463531,56.869381 
	C210.954178,55.118988 214.359299,54.109215 217.432693,53.868473 
	C223.343063,53.405510 229.315369,53.733608 236.781326,53.733608 
	C224.685440,63.056389 213.733459,71.497528 202.306000,80.305130 
	C213.717850,89.099701 224.730530,97.586655 235.743225,106.073616 
	C224.885437,105.991905 213.682373,110.309639 204.065979,100.894463 
	C197.612961,94.576500 189.788559,89.659241 181.774948,83.498024 
	C181.774948,91.785675 181.774948,99.139061 181.774948,107.025215 
	C175.958160,107.025215 170.670105,107.196548 165.414642,106.859634 
	C164.519653,106.802254 163.764282,104.567078 162.944168,102.854088 
z"/>
<path fill="#070707" opacity="1.000000" stroke="none" 
	d="
M74.260551,148.013550 
	C71.255508,147.586639 68.645042,147.101120 66.278328,146.660934 
	C62.788189,146.999771 57.235115,148.839111 56.143673,147.368103 
	C54.018040,144.503204 54.392086,139.783661 53.627438,135.214218 
	C52.969700,136.149368 51.616825,137.374680 51.133984,138.879211 
	C48.946442,145.695572 44.158970,149.387405 37.826069,147.916153 
	C35.736610,147.430740 33.108627,145.113708 32.511261,143.103821 
	C30.398155,135.994110 37.422852,127.308540 44.793316,126.811539 
	C49.881516,126.468430 51.414658,129.599686 53.647137,134.307343 
	C55.054367,132.142776 56.461597,129.978210 58.225327,127.265289 
	C59.487976,127.265289 61.605156,127.265289 64.272682,127.265289 
	C63.033325,132.802505 61.807041,138.281342 60.580753,143.760162 
	C61.177212,143.986542 61.773670,144.212906 62.370129,144.439285 
	C69.653572,141.188522 66.464272,132.387665 70.513802,127.162849 
	C72.337067,127.162849 74.474915,127.162849 76.943924,127.162849 
	C75.600510,132.717422 74.301247,138.089493 72.922752,143.789093 
	C78.573044,145.222672 79.224182,141.493210 80.109833,137.914246 
	C80.985931,134.373932 82.000542,130.867889 83.056206,126.971008 
	C87.313530,126.971008 91.539650,126.934540 95.764847,126.981667 
	C99.689026,127.025421 101.732117,128.967209 101.073067,132.967148 
	C100.644089,135.570694 99.520096,138.074173 99.232742,140.680389 
	C99.093559,141.942749 100.162300,143.338318 100.842819,145.079559 
	C103.110558,139.506149 104.246086,134.780838 106.784111,130.996033 
	C109.586754,126.816628 114.273880,125.874397 119.335526,127.918396 
	C120.861740,123.578064 120.130013,116.923874 128.414627,119.445160 
	C126.762024,126.135475 124.943474,132.820023 123.552803,139.592453 
	C123.194275,141.338440 124.180748,143.360611 124.829407,146.695770 
	C122.874062,149.370865 120.129890,149.452682 115.463203,145.485260 
	C112.391792,148.506012 108.979729,149.115646 104.984177,147.323868 
	C104.085899,146.921051 102.725945,147.691010 101.588257,147.650192 
	C98.876709,147.552887 95.556381,148.154205 93.671547,146.807892 
	C92.339165,145.856186 92.641747,142.159897 92.783104,139.721802 
	C92.941368,136.992142 93.741035,134.299698 94.274399,131.524429 
	C89.424622,131.174210 89.424622,131.174210 84.770981,147.954910 
	C81.449150,147.954910 78.052139,147.954910 74.260551,148.013550 
M47.206749,132.184586 
	C47.041237,131.249481 46.875729,130.314377 46.710217,129.379272 
	C45.682804,129.710358 44.045181,129.753311 43.730026,130.420731 
	C42.063107,133.950806 40.565193,137.587006 39.405499,141.310013 
	C39.146221,142.142395 40.255455,144.073700 41.140141,144.400162 
	C42.020916,144.725159 43.680534,143.956772 44.530434,143.165115 
	C47.579849,140.324722 47.584736,136.648605 47.206749,132.184586 
M112.207230,144.403976 
	C114.985909,143.179123 119.738914,132.879456 118.350754,130.645508 
	C117.942894,129.989166 116.325493,129.556961 115.474594,129.791534 
	C110.954330,131.037720 108.488777,140.207062 112.207230,144.403976 
z"/>
<path fill="#090909" opacity="1.000000" stroke="none" 
	d="
M179.752258,147.465302 
	C178.800430,146.506607 178.113663,145.802231 178.318512,146.012329 
	C173.569168,146.822556 169.580841,148.052429 165.632980,147.933975 
	C163.786407,147.878555 161.110489,145.566528 160.383041,143.673080 
	C158.130402,137.809799 164.223511,128.270844 170.500977,127.019630 
	C175.957260,125.932091 177.602997,127.119659 178.794327,134.426819 
	C184.279129,124.059509 193.087997,128.237671 201.185684,127.202370 
	C200.075699,131.777649 198.897827,135.893845 198.156952,140.087219 
	C197.897430,141.556061 198.712601,143.214767 199.037033,144.786774 
	C200.384735,143.592224 202.379868,142.645401 202.950699,141.153595 
	C204.303421,137.618484 204.921936,133.808090 205.967987,130.146332 
	C206.258514,129.129303 207.301453,127.359009 207.501556,127.425766 
	C212.689407,129.156647 218.442886,125.039467 223.425522,128.960739 
	C223.933731,129.360718 225.126083,128.883545 226.001785,128.825821 
	C228.934921,128.632507 232.285355,127.541855 234.630966,128.624908 
	C235.856827,129.190948 235.469833,133.578796 235.533432,136.247162 
	C235.607376,139.349167 231.232361,143.103561 237.191986,145.337967 
	C235.720901,148.647705 232.772568,149.392334 230.302368,147.946747 
	C228.773041,147.051804 227.939819,144.082840 227.782303,141.971176 
	C227.617050,139.756119 228.867737,137.470947 229.042435,135.181534 
	C229.145172,133.835129 228.358261,132.420853 227.971497,131.037094 
	C226.727188,131.962326 224.774887,132.647232 224.364731,133.855606 
	C222.828964,138.380096 221.797501,143.075760 220.512833,147.950577 
	C218.435303,147.950577 216.345779,147.950577 213.846313,147.950577 
	C215.059265,142.371597 216.231079,136.981888 217.402878,131.592178 
	C216.850861,131.216705 216.298828,130.841232 215.746811,130.465744 
	C214.392899,132.031982 212.515594,133.392242 211.800293,135.209808 
	C210.535172,138.424484 210.005783,141.925110 209.104233,145.288849 
	C208.858871,146.204285 208.446274,147.785416 208.004013,147.823441 
	C204.885742,148.091599 201.727661,148.226547 198.606125,148.028412 
	C195.808884,147.850861 193.042099,147.192993 189.229401,146.581390 
	C187.499069,148.430420 184.044327,149.322815 179.752258,147.465302 
M192.426056,134.829910 
	C192.664490,133.295685 192.902939,131.761459 193.152557,130.155319 
	C187.952408,130.017151 184.367722,134.382385 184.302231,140.542130 
	C184.288696,141.815582 185.211792,144.104385 185.872208,144.167908 
	C187.200043,144.295639 189.307434,143.590515 189.900345,142.549622 
	C191.079285,140.479965 191.451050,137.950531 192.426056,134.829910 
M176.702530,143.003998 
	C177.157272,140.457886 177.612015,137.911789 178.049042,135.464920 
	C174.174835,137.248917 170.820694,138.793442 167.377945,140.378769 
	C167.535004,145.594925 169.465683,146.352585 176.702530,143.003998 
M169.862137,137.255508 
	C174.712433,134.480759 175.367920,133.186630 173.984787,129.116302 
	C169.603165,130.859406 167.590408,134.428101 169.862137,137.255508 
z"/>
<path fill="#070707" opacity="1.000000" stroke="none" 
	d="
M26.145851,129.879684 
	C30.133749,132.790070 31.953892,136.402771 30.878382,140.907990 
	C29.784451,145.490402 26.179020,147.793137 21.858067,148.377747 
	C18.501625,148.831879 14.775015,148.993820 11.660737,147.949814 
	C9.522993,147.233185 7.218490,144.425797 6.739298,142.179489 
	C6.364800,140.423950 8.191834,137.194550 9.927461,136.250565 
	C12.036339,135.103577 15.076262,135.668442 18.660837,135.429581 
	C17.588255,137.197250 17.471632,137.639420 17.271917,137.680832 
	C14.553255,138.244507 11.453449,139.047684 12.531997,142.489395 
	C13.009264,144.012375 15.971373,145.604004 17.843519,145.651077 
	C20.930140,145.728668 23.124353,143.591019 22.917688,140.170898 
	C22.822887,138.602036 22.250952,136.913696 21.418056,135.576950 
	C20.471760,134.058197 19.053879,132.806564 17.732792,131.552826 
	C12.596475,126.678345 11.554256,123.399506 14.220983,120.228195 
	C17.156685,116.736992 27.063866,115.239044 30.392553,118.134521 
	C31.501186,119.098862 32.363049,121.536285 31.914890,122.792816 
	C31.382925,124.284325 29.315954,125.228355 27.936331,126.390991 
	C27.412769,123.223839 27.598284,120.733299 26.484724,119.165413 
	C25.944643,118.404984 22.374161,118.731110 21.276093,119.750595 
	C20.296791,120.659828 20.130219,123.586517 20.867687,124.929535 
	C21.919580,126.845146 24.124241,128.127762 26.145851,129.879684 
z"/>
<path fill="#070707" opacity="1.000000" stroke="none" 
	d="
M157.384918,125.551468 
	C155.478607,133.194351 153.708206,140.450089 151.892761,147.890488 
	C149.735825,147.890488 147.619247,147.890488 144.992722,147.890488 
	C147.243515,138.693756 149.458054,129.645157 151.682434,120.556374 
	C144.355515,120.124290 142.597443,122.061775 141.684708,131.274658 
	C137.288010,130.214554 135.596207,126.569855 138.928391,123.030579 
	C141.633453,120.157402 145.867111,118.097710 149.778122,117.161629 
	C153.686600,116.226143 158.035919,117.162643 162.192795,117.224991 
	C165.321243,117.271912 168.450943,117.234268 171.585022,117.234268 
	C171.953629,122.692047 167.302185,122.604637 158.778656,121.177040 
	C158.371338,122.468208 157.946091,123.816261 157.384918,125.551468 
z"/>
<path fill="#96CAEF" opacity="1.000000" stroke="none" 
	d="
M242.084015,60.149830 
	C241.624802,60.789970 241.165588,61.430111 240.706390,62.070251 
	C240.271179,61.891052 239.835968,61.711853 239.400757,61.532650 
	C240.028122,59.800495 240.655502,58.068336 241.282867,56.336182 
	C242.300034,56.887760 243.317200,57.439339 243.952240,58.524185 
	C243.074753,59.421577 242.579376,59.785702 242.084015,60.149830 
z"/>
<path fill="#0D94E2" opacity="1.000000" stroke="none" 
	d="
M242.383331,60.099091 
	C242.579376,59.785702 243.074753,59.421577 243.848175,58.902519 
	C244.403702,59.508385 244.681198,60.269180 245.051605,61.284763 
	C243.975204,60.722965 243.328918,60.385658 242.383331,60.099091 
z"/>
<path fill="#F0F7FC" opacity="1.000000" stroke="none" 
	d="
M238.035873,56.953957 
	C238.154068,57.119926 238.272247,57.285900 238.390442,57.451874 
	C238.290573,57.407619 238.190689,57.363369 238.045349,57.157715 
	C237.999893,56.996311 238.035873,56.953957 238.035873,56.953957 
z"/>
<path fill="#F0F7FC" opacity="1.000000" stroke="none" 
	d="
M237.978973,57.014626 
	C237.845642,56.873547 237.733200,56.714149 237.620773,56.554756 
	C237.714462,56.598408 237.808167,56.642059 237.968872,56.819832 
	C238.035873,56.953957 237.999893,56.996311 237.978973,57.014626 
z"/>
<path fill="#F0F0F0" opacity="1.000000" stroke="none" 
	d="
M47.024643,132.528809 
	C47.584736,136.648605 47.579849,140.324722 44.530434,143.165115 
	C43.680534,143.956772 42.020916,144.725159 41.140141,144.400162 
	C40.255455,144.073700 39.146221,142.142395 39.405499,141.310013 
	C40.565193,137.587006 42.063107,133.950806 43.730026,130.420731 
	C44.045181,129.753311 45.682804,129.710358 46.710217,129.379272 
	C46.875729,130.314377 47.041237,131.249481 47.024643,132.528809 
z"/>
<path fill="#F2F2F2" opacity="1.000000" stroke="none" 
	d="
M111.829269,144.364777 
	C108.488777,140.207062 110.954330,131.037720 115.474594,129.791534 
	C116.325493,129.556961 117.942894,129.989166 118.350754,130.645508 
	C119.738914,132.879456 114.985909,143.179123 111.829269,144.364777 
z"/>
<path fill="#F1F1F1" opacity="1.000000" stroke="none" 
	d="
M192.291183,135.220490 
	C191.451050,137.950531 191.079285,140.479965 189.900345,142.549622 
	C189.307434,143.590515 187.200043,144.295639 185.872208,144.167908 
	C185.211792,144.104385 184.288696,141.815582 184.302231,140.542130 
	C184.367722,134.382385 187.952408,130.017151 193.152557,130.155319 
	C192.902939,131.761459 192.664490,133.295685 192.291183,135.220490 
z"/>
<path fill="#EFEFEF" opacity="1.000000" stroke="none" 
	d="
M176.395477,143.272476 
	C169.465683,146.352585 167.535004,145.594925 167.377945,140.378769 
	C170.820694,138.793442 174.174835,137.248917 178.049042,135.464920 
	C177.612015,137.911789 177.157272,140.457886 176.395477,143.272476 
z"/>
<path fill="#E9E9E9" opacity="1.000000" stroke="none" 
	d="
M169.533493,137.423401 
	C167.590408,134.428101 169.603165,130.859406 173.984787,129.116302 
	C175.367920,133.186630 174.712433,134.480759 169.533493,137.423401 
z"/>
</svg>